<?xml version="1.0" encoding="UTF-8" standalone="no"?><!DOCTYPE svg PUBLIC "-//W3C//DTD SVG 1.1//EN" "http://www.w3.org/Graphics/SVG/1.1/DTD/svg11.dtd"><!-- Generated by graphviz version 2.40.1 (20161225.0304)
 --><!-- Title: %0 Pages: 1 --><svg xmlns="http://www.w3.org/2000/svg" xmlns:xlink="http://www.w3.org/1999/xlink" width="770pt" height="639pt" viewBox="0.00 0.00 770.32 639.20">
<g id="graph0" class="graph" transform="scale(1 1) rotate(0) translate(4 635.2)">
<title>%0</title>
<polygon fill="#ffffff" stroke="transparent" points="-4,4 -4,-635.2 766.3177,-635.2 766.3177,4 -4,4"/>
<!-- n1 -->
<g id="node1" class="node">
<title>n1</title>
<ellipse fill="#000000" stroke="#000000" cx="254.1052" cy="-629.4" rx="1.8" ry="1.8"/>
</g>
<!-- n2 -->
<g id="node2" class="node">
<title>n2</title>
<ellipse fill="none" stroke="#000000" cx="145.1052" cy="-556.8" rx="27" ry="18"/>
<text text-anchor="middle" x="145.1052" y="-552.6" font-family="Times,serif" font-size="14.00" fill="#000000">a</text>
</g>
<!-- n1&#45;&gt;n2 -->
<g id="edge1" class="edge">
<title>n1-&gt;n2</title>
<path fill="none" stroke="#000000" d="M252.5643,-628.3737C244.0286,-622.6884 201.8849,-594.6184 172.9828,-575.368"/>
<polygon fill="#000000" stroke="#000000" points="174.7532,-572.342 164.4901,-569.7114 170.8728,-578.168 174.7532,-572.342"/>
<text text-anchor="middle" x="225.2125" y="-597" font-family="Times,serif" font-size="14.00" fill="#000000">a</text>
</g>
<!-- n3 -->
<g id="node8" class="node">
<title>n3</title>
<ellipse fill="none" stroke="#000000" cx="226.1052" cy="-556.8" rx="27" ry="18"/>
<text text-anchor="middle" x="226.1052" y="-552.6" font-family="Times,serif" font-size="14.00" fill="#000000">b</text>
</g>
<!-- n1&#45;&gt;n3 -->
<g id="edge2" class="edge">
<title>n1-&gt;n3</title>
<path fill="none" stroke="#000000" d="M253.4131,-627.6054C251.0899,-621.5818 243.3429,-601.4949 236.691,-584.2475"/>
<polygon fill="#000000" stroke="#000000" points="239.8143,-582.619 232.9503,-574.5483 233.2832,-585.138 239.8143,-582.619"/>
<text text-anchor="middle" x="249.6052" y="-597" font-family="Times,serif" font-size="14.00" fill="#000000">b</text>
</g>
<!-- n4 -->
<g id="node11" class="node">
<title>n4</title>
<ellipse fill="none" stroke="#00ff00" cx="303.1052" cy="-556.8" rx="27" ry="18"/>
<text text-anchor="middle" x="303.1052" y="-552.6" font-family="Times,serif" font-size="14.00" fill="#000000">c</text>
</g>
<!-- n1&#45;&gt;n4 -->
<g id="edge3" class="edge">
<title>n1-&gt;n4</title>
<path fill="none" stroke="#000000" d="M255.1286,-627.8836C259.1206,-621.969 274.0246,-599.8868 286.1745,-581.8851"/>
<polygon fill="#000000" stroke="#000000" points="289.1645,-583.7112 291.8578,-573.4644 283.3624,-579.7952 289.1645,-583.7112"/>
<text text-anchor="middle" x="282.2125" y="-597" font-family="Times,serif" font-size="14.00" fill="#000000">c</text>
</g>
<!-- n5 -->
<g id="node13" class="node">
<title>n5</title>
<ellipse fill="none" stroke="#000000" cx="418.1052" cy="-556.8" rx="27" ry="18"/>
<text text-anchor="middle" x="418.1052" y="-552.6" font-family="Times,serif" font-size="14.00" fill="#000000">r</text>
</g>
<!-- n1&#45;&gt;n5 -->
<g id="edge4" class="edge">
<title>n1-&gt;n5</title>
<path fill="none" stroke="#000000" d="M255.947,-628.5847C268.51,-623.0232 342.3915,-590.3172 385.973,-571.0244"/>
<polygon fill="#000000" stroke="#000000" points="387.5744,-574.1431 395.3017,-566.8947 384.7408,-567.7423 387.5744,-574.1431"/>
<text text-anchor="middle" x="338.4355" y="-597" font-family="Times,serif" font-size="14.00" fill="#000000">r</text>
</g>
<!-- n30 -->
<g id="node3" class="node">
<title>n30</title>
<ellipse fill="none" stroke="#000000" cx="120.1052" cy="-467.5" rx="27" ry="18"/>
<text text-anchor="middle" x="120.1052" y="-463.3" font-family="Times,serif" font-size="14.00" fill="#000000">al</text>
</g>
<!-- n2&#45;&gt;n30 -->
<g id="edge5" class="edge">
<title>n2-&gt;n30</title>
<path fill="none" stroke="#000000" d="M140.0461,-538.7288C136.5329,-526.1796 131.7867,-509.2264 127.8061,-495.0077"/>
<polygon fill="#000000" stroke="#000000" points="131.1379,-493.9257 125.0715,-485.2396 124.397,-495.8129 131.1379,-493.9257"/>
<text text-anchor="middle" x="137.0505" y="-508.2" font-family="Times,serif" font-size="14.00" fill="#000000">l</text>
</g>
<!-- n31 -->
<g id="node4" class="node">
<title>n31</title>
<ellipse fill="none" stroke="#00ff00" cx="43.1052" cy="-377.7" rx="27" ry="18"/>
<text text-anchor="middle" x="43.1052" y="-373.5" font-family="Times,serif" font-size="14.00" fill="#000000">ali</text>
</g>
<!-- n30&#45;&gt;n31 -->
<g id="edge6" class="edge">
<title>n30-&gt;n31</title>
<path fill="none" stroke="#000000" d="M106.6928,-451.858C94.7312,-437.908 77.047,-417.284 63.3623,-401.3246"/>
<polygon fill="#000000" stroke="#000000" points="65.7886,-398.7771 56.6222,-393.464 60.4746,-403.3337 65.7886,-398.7771"/>
<text text-anchor="middle" x="91.0505" y="-418.4" font-family="Times,serif" font-size="14.00" fill="#000000">i</text>
</g>
<!-- n32 -->
<g id="node6" class="node">
<title>n32</title>
<polygon fill="none" stroke="#00ff00" points="93.1052,-359.7 93.1052,-395.7 147.1052,-395.7 147.1052,-359.7 93.1052,-359.7"/>
<text text-anchor="middle" x="108.1031" y="-373.5" font-family="Times,serif" font-size="14.00" fill="#000000">all</text>
<polyline fill="none" stroke="#00ff00" points="123.101,-359.7 123.101,-395.7 "/>
<text text-anchor="middle" x="135.101" y="-373.5" font-family="Times,serif" font-size="14.00" fill="#000000">b</text>
</g>
<!-- n30&#45;&gt;n32 -->
<g id="edge7" class="edge">
<title>n30-&gt;n32</title>
<path fill="none" stroke="#000000" d="M120.1052,-449.3276C120.1052,-436.9124 120.1052,-420.2106 120.1052,-406.0579"/>
<polygon fill="#000000" stroke="#000000" points="123.6053,-405.8453 120.1052,-395.8453 116.6053,-405.8454 123.6053,-405.8453"/>
<text text-anchor="middle" x="122.0505" y="-418.4" font-family="Times,serif" font-size="14.00" fill="#000000">l</text>
</g>
<!-- n34 -->
<g id="node5" class="node">
<title>n34</title>
<polygon fill="none" stroke="#0000ff" points="0,-269.9 0,-305.9 66.2104,-305.9 66.2104,-269.9 0,-269.9"/>
<text text-anchor="middle" x="21.6052" y="-283.7" font-family="Times,serif" font-size="14.00" fill="#000000">alien</text>
<polyline fill="none" stroke="#0000ff" points="43.2104,-269.9 43.2104,-305.9 "/>
<text text-anchor="middle" x="54.7104" y="-283.7" font-family="Times,serif" font-size="14.00" fill="#000000">1</text>
</g>
<!-- n31&#45;&gt;n34 -->
<g id="edge8" class="edge">
<title>n31-&gt;n34</title>
<path fill="none" stroke="#00ff00" d="M41.0816,-359.5276C39.699,-347.1124 37.8391,-330.4106 36.2631,-316.2579"/>
<polygon fill="#00ff00" stroke="#00ff00" points="39.7112,-315.5965 35.1258,-306.0453 32.7542,-316.3713 39.7112,-315.5965"/>
<text text-anchor="middle" x="45.7125" y="-328.6" font-family="Times,serif" font-size="14.00" fill="#000000">en</text>
</g>
<!-- n33 -->
<g id="node7" class="node">
<title>n33</title>
<polygon fill="none" stroke="#0000ff" points="84.0291,-269.9 84.0291,-305.9 166.1813,-305.9 166.1813,-269.9 84.0291,-269.9"/>
<text text-anchor="middle" x="115.3552" y="-283.7" font-family="Times,serif" font-size="14.00" fill="#000000">alligator</text>
<polyline fill="none" stroke="#0000ff" points="146.6813,-269.9 146.6813,-305.9 "/>
<text text-anchor="middle" x="156.4313" y="-283.8" font-family="Times,serif" font-size="14.00" fill="#000000"> </text>
</g>
<!-- n32&#45;&gt;n33 -->
<g id="edge9" class="edge">
<title>n32-&gt;n33</title>
<path fill="none" stroke="#00ff00" d="M121.117,-359.5276C121.8083,-347.1124 122.7382,-330.4106 123.5263,-316.2579"/>
<polygon fill="#00ff00" stroke="#00ff00" points="127.0334,-316.2245 124.0949,-306.0453 120.0443,-315.8353 127.0334,-316.2245"/>
<text text-anchor="middle" x="139.4334" y="-328.6" font-family="Times,serif" font-size="14.00" fill="#000000">igator</text>
</g>
<!-- n28 -->
<g id="node9" class="node">
<title>n28</title>
<polygon fill="none" stroke="#00ff00" points="171.1052,-449.5 171.1052,-485.5 225.1052,-485.5 225.1052,-449.5 171.1052,-449.5"/>
<text text-anchor="middle" x="185.7125" y="-463.3" font-family="Times,serif" font-size="14.00" fill="#000000">ba</text>
<polyline fill="none" stroke="#00ff00" points="200.3198,-449.5 200.3198,-485.5 "/>
<text text-anchor="middle" x="212.3198" y="-463.3" font-family="Times,serif" font-size="14.00" fill="#000000">d</text>
</g>
<!-- n3&#45;&gt;n28 -->
<g id="edge10" class="edge">
<title>n3-&gt;n28</title>
<path fill="none" stroke="#000000" d="M220.5733,-539.1572C216.6746,-526.723 211.3724,-509.8128 206.8978,-495.5422"/>
<polygon fill="#000000" stroke="#000000" points="210.1495,-494.214 203.8178,-485.7192 203.4701,-496.3084 210.1495,-494.214"/>
<text text-anchor="middle" x="218.2125" y="-508.2" font-family="Times,serif" font-size="14.00" fill="#000000">a</text>
</g>
<!-- n29 -->
<g id="node10" class="node">
<title>n29</title>
<polygon fill="none" stroke="#0000ff" points="165.5526,-359.7 165.5526,-395.7 242.6578,-395.7 242.6578,-359.7 165.5526,-359.7"/>
<text text-anchor="middle" x="192.6052" y="-373.5" font-family="Times,serif" font-size="14.00" fill="#000000">baloon</text>
<polyline fill="none" stroke="#0000ff" points="219.6578,-359.7 219.6578,-395.7 "/>
<text text-anchor="middle" x="231.1578" y="-373.5" font-family="Times,serif" font-size="14.00" fill="#000000">2</text>
</g>
<!-- n28&#45;&gt;n29 -->
<g id="edge11" class="edge">
<title>n28-&gt;n29</title>
<path fill="none" stroke="#00ff00" d="M199.3194,-449.3276C200.1489,-436.9124 201.2648,-420.2106 202.2105,-406.0579"/>
<polygon fill="#00ff00" stroke="#00ff00" points="205.7183,-406.0565 202.8928,-395.8453 198.7338,-405.5897 205.7183,-406.0565"/>
<text text-anchor="middle" x="214.5505" y="-418.4" font-family="Times,serif" font-size="14.00" fill="#000000">loon</text>
</g>
<!-- n27 -->
<g id="node12" class="node">
<title>n27</title>
<polygon fill="none" stroke="#0000ff" points="243.1171,-449.5 243.1171,-485.5 373.0933,-485.5 373.0933,-449.5 243.1171,-449.5"/>
<text text-anchor="middle" x="296.6052" y="-463.3" font-family="Times,serif" font-size="14.00" fill="#000000">chromodynamic</text>
<polyline fill="none" stroke="#0000ff" points="350.0933,-449.5 350.0933,-485.5 "/>
<text text-anchor="middle" x="361.5933" y="-463.3" font-family="Times,serif" font-size="14.00" fill="#000000">3</text>
</g>
<!-- n4&#45;&gt;n27 -->
<g id="edge12" class="edge">
<title>n4-&gt;n27</title>
<path fill="none" stroke="#00ff00" d="M304.117,-538.7288C304.8083,-526.3827 305.7382,-509.7739 306.5263,-495.7"/>
<polygon fill="#00ff00" stroke="#00ff00" points="310.0303,-495.7244 307.0949,-485.5443 303.0412,-495.333 310.0303,-495.7244"/>
<text text-anchor="middle" x="348.486" y="-508.2" font-family="Times,serif" font-size="14.00" fill="#000000">hromodynamic</text>
</g>
<!-- n6 -->
<g id="node14" class="node">
<title>n6</title>
<ellipse fill="none" stroke="#000000" cx="418.1052" cy="-467.5" rx="27" ry="18"/>
<text text-anchor="middle" x="418.1052" y="-463.3" font-family="Times,serif" font-size="14.00" fill="#000000">ro</text>
</g>
<!-- n5&#45;&gt;n6 -->
<g id="edge13" class="edge">
<title>n5-&gt;n6</title>
<path fill="none" stroke="#000000" d="M418.1052,-538.7288C418.1052,-526.3827 418.1052,-509.7739 418.1052,-495.7"/>
<polygon fill="#000000" stroke="#000000" points="421.6053,-495.5443 418.1052,-485.5443 414.6053,-495.5443 421.6053,-495.5443"/>
<text text-anchor="middle" x="421.6052" y="-508.2" font-family="Times,serif" font-size="14.00" fill="#000000">o</text>
</g>
<!-- n7 -->
<g id="node23" class="node">
<title>n7</title>
<ellipse fill="none" stroke="#000000" cx="505.1052" cy="-467.5" rx="27" ry="18"/>
<text text-anchor="middle" x="505.1052" y="-463.3" font-family="Times,serif" font-size="14.00" fill="#000000">ru</text>
</g>
<!-- n5&#45;&gt;n7 -->
<g id="edge14" class="edge">
<title>n5-&gt;n7</title>
<path fill="none" stroke="#000000" d="M432.8636,-541.6515C446.612,-527.5395 467.2937,-506.3111 483.0101,-490.1792"/>
<polygon fill="#000000" stroke="#000000" points="485.8031,-492.328 490.2744,-482.7228 480.7892,-487.4432 485.8031,-492.328"/>
<text text-anchor="middle" x="473.6052" y="-508.2" font-family="Times,serif" font-size="14.00" fill="#000000">u</text>
</g>
<!-- n19 -->
<g id="node15" class="node">
<title>n19</title>
<ellipse fill="none" stroke="#000000" cx="400.1052" cy="-377.7" rx="27" ry="18"/>
<text text-anchor="middle" x="400.1052" y="-373.5" font-family="Times,serif" font-size="14.00" fill="#000000">rom</text>
</g>
<!-- n6&#45;&gt;n19 -->
<g id="edge15" class="edge">
<title>n6-&gt;n19</title>
<path fill="none" stroke="#000000" d="M414.4626,-449.3276C411.9741,-436.9124 408.6263,-420.2106 405.7894,-406.0579"/>
<polygon fill="#000000" stroke="#000000" points="409.1395,-404.9624 403.7424,-395.8453 402.2761,-406.3382 409.1395,-404.9624"/>
<text text-anchor="middle" x="416.5505" y="-418.4" font-family="Times,serif" font-size="14.00" fill="#000000">m</text>
</g>
<!-- n20 -->
<g id="node16" class="node">
<title>n20</title>
<ellipse fill="none" stroke="#000000" cx="316.1052" cy="-287.9" rx="30.7577" ry="18"/>
<text text-anchor="middle" x="316.1052" y="-283.7" font-family="Times,serif" font-size="14.00" fill="#000000">roma</text>
</g>
<!-- n19&#45;&gt;n20 -->
<g id="edge16" class="edge">
<title>n19-&gt;n20</title>
<path fill="none" stroke="#000000" d="M385.4735,-362.058C372.3856,-348.0664 353.0174,-327.3609 338.0704,-311.3819"/>
<polygon fill="#000000" stroke="#000000" points="340.5222,-308.8794 331.1348,-303.9674 335.4101,-313.6614 340.5222,-308.8794"/>
<text text-anchor="middle" x="369.2125" y="-328.6" font-family="Times,serif" font-size="14.00" fill="#000000">a</text>
</g>
<!-- n21 -->
<g id="node21" class="node">
<title>n21</title>
<ellipse fill="none" stroke="#00ff00" cx="400.1052" cy="-287.9" rx="31.341" ry="18"/>
<text text-anchor="middle" x="400.1052" y="-283.7" font-family="Times,serif" font-size="14.00" fill="#000000">romu</text>
</g>
<!-- n19&#45;&gt;n21 -->
<g id="edge17" class="edge">
<title>n19-&gt;n21</title>
<path fill="none" stroke="#000000" d="M400.1052,-359.5276C400.1052,-347.1124 400.1052,-330.4106 400.1052,-316.2579"/>
<polygon fill="#000000" stroke="#000000" points="403.6053,-316.0453 400.1052,-306.0453 396.6053,-316.0454 403.6053,-316.0453"/>
<text text-anchor="middle" x="403.6052" y="-328.6" font-family="Times,serif" font-size="14.00" fill="#000000">u</text>
</g>
<!-- n23 -->
<g id="node17" class="node">
<title>n23</title>
<ellipse fill="none" stroke="#000000" cx="304.1052" cy="-198.1" rx="35.9154" ry="18"/>
<text text-anchor="middle" x="304.1052" y="-193.9" font-family="Times,serif" font-size="14.00" fill="#000000">roman</text>
</g>
<!-- n20&#45;&gt;n23 -->
<g id="edge18" class="edge">
<title>n20-&gt;n23</title>
<path fill="none" stroke="#000000" d="M313.6768,-269.7276C312.0178,-257.3124 309.7859,-240.6106 307.8947,-226.4579"/>
<polygon fill="#000000" stroke="#000000" points="311.3237,-225.6936 306.53,-216.2453 304.3854,-226.6209 311.3237,-225.6936"/>
<text text-anchor="middle" x="315.6052" y="-238.8" font-family="Times,serif" font-size="14.00" fill="#000000">n</text>
</g>
<!-- n24 -->
<g id="node18" class="node">
<title>n24</title>
<polygon fill="none" stroke="#0000ff" points="228.615,-90.3 228.615,-126.3 309.5954,-126.3 309.5954,-90.3 228.615,-90.3"/>
<text text-anchor="middle" x="257.6052" y="-104.1" font-family="Times,serif" font-size="14.00" fill="#000000">romane</text>
<polyline fill="none" stroke="#0000ff" points="286.5954,-90.3 286.5954,-126.3 "/>
<text text-anchor="middle" x="298.0954" y="-104.1" font-family="Times,serif" font-size="14.00" fill="#000000">4</text>
</g>
<!-- n23&#45;&gt;n24 -->
<g id="edge19" class="edge">
<title>n23-&gt;n24</title>
<path fill="none" stroke="#000000" d="M297.1903,-180.3584C292.2372,-167.6501 285.472,-150.2924 279.8225,-135.7974"/>
<polygon fill="#000000" stroke="#000000" points="283.0181,-134.3584 276.1255,-126.3121 276.496,-136.9005 283.0181,-134.3584"/>
<text text-anchor="middle" x="293.2125" y="-149" font-family="Times,serif" font-size="14.00" fill="#000000">e</text>
</g>
<!-- n25 -->
<g id="node19" class="node">
<title>n25</title>
<ellipse fill="none" stroke="#000000" cx="368.1052" cy="-108.3" rx="40.5712" ry="18"/>
<text text-anchor="middle" x="368.1052" y="-104.1" font-family="Times,serif" font-size="14.00" fill="#000000">romanu</text>
</g>
<!-- n23&#45;&gt;n25 -->
<g id="edge20" class="edge">
<title>n23-&gt;n25</title>
<path fill="none" stroke="#000000" d="M316.445,-180.7857C325.9187,-167.493 339.1458,-148.9337 349.844,-133.9228"/>
<polygon fill="#000000" stroke="#000000" points="352.8496,-135.736 355.8032,-125.5612 347.1492,-131.6733 352.8496,-135.736"/>
<text text-anchor="middle" x="345.6052" y="-149" font-family="Times,serif" font-size="14.00" fill="#000000">u</text>
</g>
<!-- n26 -->
<g id="node20" class="node">
<title>n26</title>
<polygon fill="none" stroke="#0000ff" points="324.5,-.5 324.5,-36.5 411.7104,-36.5 411.7104,-.5 324.5,-.5"/>
<text text-anchor="middle" x="356.6052" y="-14.3" font-family="Times,serif" font-size="14.00" fill="#000000">romanus</text>
<polyline fill="none" stroke="#0000ff" points="388.7104,-.5 388.7104,-36.5 "/>
<text text-anchor="middle" x="400.2104" y="-14.3" font-family="Times,serif" font-size="14.00" fill="#000000">5</text>
</g>
<!-- n25&#45;&gt;n26 -->
<g id="edge21" class="edge">
<title>n25-&gt;n26</title>
<path fill="none" stroke="#000000" d="M368.1052,-90.1276C368.1052,-77.7124 368.1052,-61.0106 368.1052,-46.8579"/>
<polygon fill="#000000" stroke="#000000" points="371.6053,-46.6453 368.1052,-36.6453 364.6053,-46.6454 371.6053,-46.6453"/>
<text text-anchor="middle" x="370.8275" y="-59.2" font-family="Times,serif" font-size="14.00" fill="#000000">s</text>
</g>
<!-- n22 -->
<g id="node22" class="node">
<title>n22</title>
<polygon fill="none" stroke="#0000ff" points="357.662,-180.1 357.662,-216.1 442.5484,-216.1 442.5484,-180.1 357.662,-180.1"/>
<text text-anchor="middle" x="388.6052" y="-193.9" font-family="Times,serif" font-size="14.00" fill="#000000">romulus</text>
<polyline fill="none" stroke="#0000ff" points="419.5484,-180.1 419.5484,-216.1 "/>
<text text-anchor="middle" x="431.0484" y="-193.9" font-family="Times,serif" font-size="14.00" fill="#000000">6</text>
</g>
<!-- n21&#45;&gt;n22 -->
<g id="edge22" class="edge">
<title>n21-&gt;n22</title>
<path fill="none" stroke="#00ff00" d="M400.1052,-269.7276C400.1052,-257.3124 400.1052,-240.6106 400.1052,-226.4579"/>
<polygon fill="#00ff00" stroke="#00ff00" points="403.6053,-226.2453 400.1052,-216.2453 396.6053,-226.2454 403.6053,-226.2453"/>
<text text-anchor="middle" x="408.2728" y="-238.8" font-family="Times,serif" font-size="14.00" fill="#000000">lus</text>
</g>
<!-- n8 -->
<g id="node24" class="node">
<title>n8</title>
<polygon fill="none" stroke="#000000" points="507.6676,-359.7 507.6676,-395.7 564.5428,-395.7 564.5428,-359.7 507.6676,-359.7"/>
<text text-anchor="middle" x="524.9979" y="-373.5" font-family="Times,serif" font-size="14.00" fill="#000000">rub</text>
<polyline fill="none" stroke="#000000" points="542.3282,-359.7 542.3282,-395.7 "/>
<text text-anchor="middle" x="553.4355" y="-373.5" font-family="Times,serif" font-size="14.00" fill="#000000">c</text>
</g>
<!-- n7&#45;&gt;n8 -->
<g id="edge23" class="edge">
<title>n7-&gt;n8</title>
<path fill="none" stroke="#000000" d="M511.2298,-449.7584C515.6168,-437.0501 521.6089,-419.6924 526.6128,-405.1974"/>
<polygon fill="#000000" stroke="#000000" points="529.9324,-406.3068 529.8872,-395.7121 523.3156,-404.0226 529.9324,-406.3068"/>
<text text-anchor="middle" x="527.6052" y="-418.4" font-family="Times,serif" font-size="14.00" fill="#000000">b</text>
</g>
<!-- n9 -->
<g id="node25" class="node">
<title>n9</title>
<ellipse fill="none" stroke="#000000" cx="536.1052" cy="-287.9" rx="28.3913" ry="18"/>
<text text-anchor="middle" x="536.1052" y="-283.7" font-family="Times,serif" font-size="14.00" fill="#000000">rube</text>
</g>
<!-- n8&#45;&gt;n9 -->
<g id="edge24" class="edge">
<title>n8-&gt;n9</title>
<path fill="none" stroke="#000000" d="M536.1052,-359.5276C536.1052,-347.1124 536.1052,-330.4106 536.1052,-316.2579"/>
<polygon fill="#000000" stroke="#000000" points="539.6053,-316.0453 536.1052,-306.0453 532.6053,-316.0454 539.6053,-316.0453"/>
<text text-anchor="middle" x="539.2125" y="-328.6" font-family="Times,serif" font-size="14.00" fill="#000000">e</text>
</g>
<!-- n10 -->
<g id="node29" class="node">
<title>n10</title>
<ellipse fill="none" stroke="#000000" cx="622.1052" cy="-287.9" rx="27" ry="18"/>
<text text-anchor="middle" x="622.1052" y="-283.7" font-family="Times,serif" font-size="14.00" fill="#000000">rubi</text>
</g>
<!-- n8&#45;&gt;n10 -->
<g id="edge25" class="edge">
<title>n8-&gt;n10</title>
<path fill="none" stroke="#000000" d="M553.5086,-359.5276C566.9667,-345.4748 585.6845,-325.93 600.1682,-310.8063"/>
<polygon fill="#000000" stroke="#000000" points="602.9171,-312.9962 607.306,-303.3531 597.8616,-308.1546 602.9171,-312.9962"/>
<text text-anchor="middle" x="589.0505" y="-328.6" font-family="Times,serif" font-size="14.00" fill="#000000">i</text>
</g>
<!-- n16 -->
<g id="node26" class="node">
<title>n16</title>
<ellipse fill="none" stroke="#000000" cx="493.1052" cy="-198.1" rx="33.0469" ry="18"/>
<text text-anchor="middle" x="493.1052" y="-193.9" font-family="Times,serif" font-size="14.00" fill="#000000">ruben</text>
</g>
<!-- n9&#45;&gt;n16 -->
<g id="edge26" class="edge">
<title>n9-&gt;n16</title>
<path fill="none" stroke="#000000" d="M527.8144,-270.5857C521.6083,-257.625 513.0048,-239.6577 505.9163,-224.8543"/>
<polygon fill="#000000" stroke="#000000" points="508.9929,-223.1753 501.5173,-215.6676 502.6794,-226.1985 508.9929,-223.1753"/>
<text text-anchor="middle" x="522.6052" y="-238.8" font-family="Times,serif" font-size="14.00" fill="#000000">n</text>
</g>
<!-- n17 -->
<g id="node28" class="node">
<title>n17</title>
<polygon fill="none" stroke="#0000ff" points="543.8373,-180.1 543.8373,-216.1 612.3731,-216.1 612.3731,-180.1 543.8373,-180.1"/>
<text text-anchor="middle" x="566.6052" y="-193.9" font-family="Times,serif" font-size="14.00" fill="#000000">ruber</text>
<polyline fill="none" stroke="#0000ff" points="589.3731,-180.1 589.3731,-216.1 "/>
<text text-anchor="middle" x="600.8731" y="-193.9" font-family="Times,serif" font-size="14.00" fill="#000000">8</text>
</g>
<!-- n9&#45;&gt;n17 -->
<g id="edge27" class="edge">
<title>n9-&gt;n17</title>
<path fill="none" stroke="#000000" d="M544.2032,-270.5857C550.1868,-257.7923 558.4519,-240.1206 565.3233,-225.4289"/>
<polygon fill="#000000" stroke="#000000" points="568.5333,-226.8269 569.5996,-216.2859 562.1925,-223.8613 568.5333,-226.8269"/>
<text text-anchor="middle" x="563.4355" y="-238.8" font-family="Times,serif" font-size="14.00" fill="#000000">r</text>
</g>
<!-- n18 -->
<g id="node27" class="node">
<title>n18</title>
<polygon fill="none" stroke="#0000ff" points="454.9453,-90.3 454.9453,-126.3 531.2651,-126.3 531.2651,-90.3 454.9453,-90.3"/>
<text text-anchor="middle" x="481.6052" y="-104.1" font-family="Times,serif" font-size="14.00" fill="#000000">rubens</text>
<polyline fill="none" stroke="#0000ff" points="508.2651,-90.3 508.2651,-126.3 "/>
<text text-anchor="middle" x="519.7651" y="-104.1" font-family="Times,serif" font-size="14.00" fill="#000000">7</text>
</g>
<!-- n16&#45;&gt;n18 -->
<g id="edge28" class="edge">
<title>n16-&gt;n18</title>
<path fill="none" stroke="#000000" d="M493.1052,-179.9276C493.1052,-167.5124 493.1052,-150.8106 493.1052,-136.6579"/>
<polygon fill="#000000" stroke="#000000" points="496.6053,-136.4453 493.1052,-126.4453 489.6053,-136.4454 496.6053,-136.4453"/>
<text text-anchor="middle" x="495.8275" y="-149" font-family="Times,serif" font-size="14.00" fill="#000000">s</text>
</g>
<!-- n11 -->
<g id="node30" class="node">
<title>n11</title>
<ellipse fill="none" stroke="#000000" cx="661.1052" cy="-198.1" rx="30.7577" ry="18"/>
<text text-anchor="middle" x="661.1052" y="-193.9" font-family="Times,serif" font-size="14.00" fill="#000000">rubic</text>
</g>
<!-- n10&#45;&gt;n11 -->
<g id="edge29" class="edge">
<title>n10-&gt;n11</title>
<path fill="none" stroke="#000000" d="M629.6248,-270.5857C635.2536,-257.625 643.0567,-239.6577 649.4859,-224.8543"/>
<polygon fill="#000000" stroke="#000000" points="652.7024,-226.2342 653.4756,-215.6676 646.2817,-223.4457 652.7024,-226.2342"/>
<text text-anchor="middle" x="648.2125" y="-238.8" font-family="Times,serif" font-size="14.00" fill="#000000">c</text>
</g>
<!-- n12 -->
<g id="node31" class="node">
<title>n12</title>
<ellipse fill="none" stroke="#000000" cx="608.1052" cy="-108.3" rx="35.9154" ry="18"/>
<text text-anchor="middle" x="608.1052" y="-104.1" font-family="Times,serif" font-size="14.00" fill="#000000">rubico</text>
</g>
<!-- n11&#45;&gt;n12 -->
<g id="edge30" class="edge">
<title>n11-&gt;n12</title>
<path fill="none" stroke="#000000" d="M650.8863,-180.7857C643.1142,-167.6172 632.2917,-149.2802 623.4767,-134.3445"/>
<polygon fill="#000000" stroke="#000000" points="626.3898,-132.3942 618.2928,-125.5612 620.3614,-135.9521 626.3898,-132.3942"/>
<text text-anchor="middle" x="643.6052" y="-149" font-family="Times,serif" font-size="14.00" fill="#000000">o</text>
</g>
<!-- n13 -->
<g id="node33" class="node">
<title>n13</title>
<ellipse fill="none" stroke="#00ff00" cx="707.1052" cy="-108.3" rx="35.9154" ry="18"/>
<text text-anchor="middle" x="707.1052" y="-104.1" font-family="Times,serif" font-size="14.00" fill="#000000">rubicu</text>
</g>
<!-- n11&#45;&gt;n13 -->
<g id="edge31" class="edge">
<title>n11-&gt;n13</title>
<path fill="none" stroke="#000000" d="M669.9745,-180.7857C676.6135,-167.825 685.8173,-149.8577 693.4003,-135.0543"/>
<polygon fill="#000000" stroke="#000000" points="696.6621,-136.3636 698.1062,-125.8676 690.4319,-133.1721 696.6621,-136.3636"/>
<text text-anchor="middle" x="692.6052" y="-149" font-family="Times,serif" font-size="14.00" fill="#000000">u</text>
</g>
<!-- n15 -->
<g id="node32" class="node">
<title>n15</title>
<polygon fill="none" stroke="#0000ff" points="562.2223,-.5 562.2223,-36.5 643.9881,-36.5 643.9881,-.5 562.2223,-.5"/>
<text text-anchor="middle" x="591.6052" y="-14.3" font-family="Times,serif" font-size="14.00" fill="#000000">rubicon</text>
<polyline fill="none" stroke="#0000ff" points="620.9881,-.5 620.9881,-36.5 "/>
<text text-anchor="middle" x="632.4881" y="-14.3" font-family="Times,serif" font-size="14.00" fill="#000000">9</text>
</g>
<!-- n12&#45;&gt;n15 -->
<g id="edge32" class="edge">
<title>n12-&gt;n15</title>
<path fill="none" stroke="#000000" d="M607.0934,-90.1276C606.4021,-77.7124 605.4722,-61.0106 604.6841,-46.8579"/>
<polygon fill="#000000" stroke="#000000" points="608.1661,-46.4353 604.1155,-36.6453 601.177,-46.8245 608.1661,-46.4353"/>
<text text-anchor="middle" x="609.6052" y="-59.2" font-family="Times,serif" font-size="14.00" fill="#000000">n</text>
</g>
<!-- n14 -->
<g id="node34" class="node">
<title>n14</title>
<polygon fill="none" stroke="#0000ff" points="661.8927,-.5 661.8927,-36.5 762.3177,-36.5 762.3177,-.5 661.8927,-.5"/>
<text text-anchor="middle" x="700.9979" y="-14.3" font-family="Times,serif" font-size="14.00" fill="#000000">rubicundus</text>
<polyline fill="none" stroke="#0000ff" points="740.1031,-.5 740.1031,-36.5 "/>
<text text-anchor="middle" x="751.2104" y="-14.3" font-family="Times,serif" font-size="14.00" fill="#000000">a</text>
</g>
<!-- n13&#45;&gt;n14 -->
<g id="edge33" class="edge">
<title>n13-&gt;n14</title>
<path fill="none" stroke="#00ff00" d="M708.117,-90.1276C708.8083,-77.7124 709.7382,-61.0106 710.5263,-46.8579"/>
<polygon fill="#00ff00" stroke="#00ff00" points="714.0334,-46.8245 711.0949,-36.6453 707.0443,-46.4353 714.0334,-46.8245"/>
<text text-anchor="middle" x="723.3275" y="-59.2" font-family="Times,serif" font-size="14.00" fill="#000000">ndus</text>
</g>
</g>
</svg>