<?xml version="1.0" encoding="UTF-8" standalone="no"?>
<!-- Created with Inkscape (http://www.inkscape.org/) -->

<svg
   width="128.45592mm"
   height="47.647751mm"
   viewBox="0 0 128.45592 47.647751"
   version="1.1"
   id="svg5"
   inkscape:version="1.1 (c68e22c387, 2021-05-23)"
   sodipodi:docname="gorax.svg"
   xmlns:inkscape="http://www.inkscape.org/namespaces/inkscape"
   xmlns:sodipodi="http://sodipodi.sourceforge.net/DTD/sodipodi-0.dtd"
   xmlns="http://www.w3.org/2000/svg"
   xmlns:svg="http://www.w3.org/2000/svg">
  <sodipodi:namedview
     id="namedview7"
     pagecolor="#505050"
     bordercolor="#eeeeee"
     borderopacity="1"
     inkscape:pageshadow="0"
     inkscape:pageopacity="0"
     inkscape:pagecheckerboard="0"
     inkscape:document-units="mm"
     showgrid="false"
     inkscape:snap-global="true"
     inkscape:snap-nodes="true"
     inkscape:zoom="1.3450788"
     inkscape:cx="557.21641"
     inkscape:cy="149.06189"
     inkscape:window-width="2160"
     inkscape:window-height="1287"
     inkscape:window-x="0"
     inkscape:window-y="31"
     inkscape:window-maximized="1"
     inkscape:current-layer="layer1" />
  <defs
     id="defs2">
    <rect
       x="327.66513"
       y="275.84555"
       width="994.69177"
       height="358.55588"
       id="rect6940" />
  </defs>
  <g
     inkscape:label="Layer 1"
     inkscape:groupmode="layer"
     id="layer1"
     transform="translate(-42.711047,-55.764294)">
    <g
       id="g24768"
       transform="matrix(0.30645291,0,0,0.30645291,63.045802,48.903914)"
       style="fill:#00add8;fill-opacity:1">
      <path
         style="fill:#00add8;fill-opacity:1;stroke-width:0.623582"
         d="M 3.4163781,175.92049 C 1.0409681,175.1798 0.92260811,174.17668 0.90146811,154.6072 l -0.0206,-19.05598 -5.43576001,-2.60734 c -2.989666,-1.43404 -6.7913561,-3.8656 -8.4481991,-5.40346 l -3.01243,-2.79612 -2.28802,0.96859 c -6.66948,2.82339 -16.81441,3.554 -23.22074,1.67228 -11.88926,-3.4922 -21.45777,-13.72802 -23.98601,-25.65878 -1.12773,-5.321737 -1.12679,-8.722249 0.004,-14.058109 3.15386,-14.883882 15.52388,-25.64472 31.03503,-26.997776 l 4.83789,-0.422015 0.009,-4.128661 c 0.034,-15.200688 10.01191,-28.326092 24.8914631,-32.743344 4.43160601,-1.3156 13.708056,-1.32103 18.1693259,-0.01064 8.47298,2.488745 16.47721,8.868764 20.38253,16.246527 1.52817,2.886952 2.79485,4.325248 5.12735,5.822006 7.16961,4.60073 12.85224,12.942604 14.66167,21.522765 1.23855,5.873139 1.17387,9.183702 -0.29136,14.912701 -1.42692,5.579197 -3.66533,9.979957 -7.0075,13.776859 -2.10993,2.397 -2.35987,3.03845 -2.35987,6.056317 0,18.77454 -15.55082,34.78358 -33.78798,34.78358 H 7.7814581 v 18.58828 c 0,19.09107 -0.11471,20.04901 -2.49433,20.83021 -0.51446,0.16889 -1.35629,0.17582 -1.87075,0.0154 z M 21.705448,126.93453 c 5.69155,-2.81292 10.33505,-7.56181 13.06282,-13.35928 1.77419,-3.77077 2.00799,-4.9367 2.22059,-11.07391 l 0.23763,-6.859397 3.07986,-3.268492 c 1.69392,-1.79767 3.97822,-5.16501 5.07623,-7.48299 1.86969,-3.947064 1.99637,-4.649769 1.99637,-11.073906 0,-6.416806 -0.12816,-7.129932 -1.9861,-11.051958 -2.39517,-5.056094 -6.8265,-9.963138 -11.26032,-12.469155 -2.81338,-1.59014 -3.5442,-2.424148 -5.24262,-5.982864 C 23.780008,33.605738 11.413428,27.090487 -0.06674189,29.056956 -15.041481,31.622021 -25.551941,46.441436 -22.547641,60.754333 c 0.79082,3.767577 0.79263,4.515166 0.0139,5.737225 -0.86084,1.350892 -1.13219,1.389642 -7.02613,1.003389 -5.21066,-0.341475 -6.77775,-0.205239 -10.44219,0.907799 -7.9089,2.402256 -14.88036,8.743664 -17.71301,16.112195 -0.8617,2.24152 -1.51646,5.60515 -1.70124,8.73955 -1.2361,20.968089 20.46577,35.163419 39.46139,25.811909 2.13482,-1.05097 4.41644,-1.91087 5.07026,-1.91087 0.65382,0 2.61538,1.51559 4.359043,3.36796 3.1400701,3.33589 6.9493961,6.11542 9.93875611,7.25198 l 1.54836,0.58868 -0.17561,-7.24578 -0.17564,-7.24579 -17.77210911,-9.42712 c -16.33302,-8.663757 -17.78837,-9.569009 -17.97305,-11.179659 -0.25619,-2.23427 0.84127,-3.5548 2.92753,-3.52262 0.90118,0.0139 8.6538,3.76797 17.22806,8.342362 l 15.58957911,8.317067 0.31179,-30.841906 C 1.2214781,45.942255 1.2818581,44.683682 2.4442981,43.834001 c 1.64119,-1.199626 2.61419,-1.113415 4.08999,0.362385 1.18908,1.189077 1.24717,2.078608 1.24717,19.098542 v 17.851378 l 4.6341499,-4.401985 c 6.29312,-5.977855 7.48705,-6.717336 9.422,-5.835712 1.17619,0.535908 1.53341,1.176244 1.53341,2.748705 0,1.829576 -0.83824,2.813722 -7.79478,9.151531 l -7.7947799,7.101506 v 19.940409 19.94044 l 4.6795999,-0.30032 c 3.74045,-0.24005 5.59573,-0.75309 9.24439,-2.55635 z"
         id="path1137"
         sodipodi:nodetypes="sscsscssscsccssssssssscsssssscssssssssssssssscscccsssscsssscsssscccss" />
      <path
         d="M 7.8511181,66.897931 0.99170811,54.632158 V 72.483534 L -3.6424419,68.08155 c -6.293123,-5.977856 -7.4870531,-6.717337 -9.4220031,-5.835714 -1.17619,0.535909 -1.53341,1.176245 -1.53341,2.748706 0,1.829576 0.83824,2.813722 7.7947801,9.15153 l 7.79478301,7.101507"
         style="fill:#00add8;fill-opacity:1;stroke-width:0.164989"
         id="path4185"
         sodipodi:nodetypes="cccssssc" />
    </g>
    <text
       xml:space="preserve"
       transform="matrix(0.90160813,0,0,0.90160813,-217.1609,-185.36616)"
       id="text6938"
       style="font-style:normal;font-weight:normal;font-size:40px;line-height:1.25;font-family:sans-serif;white-space:pre;shape-inside:url(#rect6940);fill:#00add8;fill-opacity:1;stroke:none"><tspan
         x="327.66602"
         y="312.01237"
         id="tspan46877"><tspan
           style="font-style:italic;font-weight:300;font-family:'Fira Sans';-inkscape-font-specification:'Fira Sans Light Italic'"
           id="tspan46873">go</tspan><tspan
           style="font-style:italic;font-weight:500;font-family:'Fira Sans';-inkscape-font-specification:'Fira Sans Medium Italic'"
           id="tspan46875">rax</tspan></tspan></text>
  </g>
</svg>
